<svg version="1.1" xmlns="http://www.w3.org/2000/svg" viewBox="0 0 3099.0319716113363 1725.4689542165233" width="3099.0319716113363" height="1725.4689542165233" filter="invert(93%) hue-rotate(180deg)">
  <!-- svg-source:excalidraw -->
  
  <defs>
    <style class="style-fonts">
      @font-face {
        font-family: "Virgil";
        src: url("https://excalidraw.com/Virgil.woff2");
      }
      @font-face {
        font-family: "Cascadia";
        src: url("https://excalidraw.com/Cascadia.woff2");
      }
    </style>
    
  </defs>
  <rect x="0" y="0" width="3099.0319716113363" height="1725.4689542165233" fill="#ffffff"></rect><g mask="url(#mask-a9QQxxSmk2430OE2rcS_U)" stroke-linecap="round"><g transform="translate(2057.6229700641443 939.5822912284918) rotate(0 -442.99068714891115 120.158528019746)"><path d="M0.43 0.78 C-41.49 5.29, -194.1 -6.91, -250.77 27.51 C-307.45 61.94, -233.69 171.88, -339.63 207.32 C-445.57 242.77, -795.44 235.01, -886.41 240.18 M-0.81 0.14 C-42.89 4.8, -194.77 -5.84, -251.37 28.91 C-307.98 63.67, -234.61 173.84, -340.44 208.68 C-446.28 243.52, -795.35 233.07, -886.38 237.97" stroke="#1e1e1e" stroke-width="1" fill="none"></path></g><g transform="translate(2057.6229700641443 939.5822912284918) rotate(0 -442.99068714891115 120.158528019746)"><path d="M-857.03 228.43 C-868.9 231.13, -878.51 234.46, -885.27 238.91 M-858.16 227.2 C-864.3 230.09, -869.94 231.63, -885.93 238.33" stroke="#1e1e1e" stroke-width="1" fill="none"></path></g><g transform="translate(2057.6229700641443 939.5822912284918) rotate(0 -442.99068714891115 120.158528019746)"><path d="M-856.75 248.94 C-868.8 244.21, -878.5 240.11, -885.27 238.91 M-857.88 247.72 C-864 246.48, -869.7 243.9, -885.93 238.33" stroke="#1e1e1e" stroke-width="1" fill="none"></path></g></g><mask id="mask-a9QQxxSmk2430OE2rcS_U"><rect x="0" y="0" fill="#fff" width="3043.6247094049513" height="1279.0959178108392"></rect><rect x="1672.506365915909" y="1052.7886700313356" fill="#000" width="215.599853515625" height="25" opacity="1"></rect></mask><g transform="translate(1672.506365915909 1052.7886700313356) rotate(0 -57.87408300067574 6.952149216902313)"><text x="107.7999267578125" y="0" font-family="Virgil, Segoe UI Emoji" font-size="20px" fill="#1e1e1e" text-anchor="middle" style="white-space: pre;" direction="ltr" dominant-baseline="text-before-edge">1) Send data via form</text></g><g stroke-linecap="round" transform="translate(2816.1469594236823 865.963387795716) rotate(0 89.5 63.5)"><path d="M31.75 0 M31.75 0 C63.96 -1.64, 96.33 -0.66, 147.25 0 M31.75 0 C72.72 0.62, 111.7 0.35, 147.25 0 M147.25 0 C169.95 0.58, 177.41 9.28, 179 31.75 M147.25 0 C166.51 -0.05, 180.19 12.35, 179 31.75 M179 31.75 C177.3 51.7, 178.84 73.25, 179 95.25 M179 31.75 C179.57 52.92, 178.71 73.82, 179 95.25 M179 95.25 C178.9 115.73, 170.14 128.05, 147.25 127 M179 95.25 C179.16 115.35, 169.37 128.34, 147.25 127 M147.25 127 C114.45 125.75, 77.46 127.18, 31.75 127 M147.25 127 C102.34 127.16, 56.49 127.77, 31.75 127 M31.75 127 C10.86 128.11, 0.89 116.07, 0 95.25 M31.75 127 C11.38 127.09, 0.93 114.49, 0 95.25 M0 95.25 C0.42 77.26, 1.5 60.27, 0 31.75 M0 95.25 C-0.6 74.83, -1.21 53.92, 0 31.75 M0 31.75 C-0.6 12.21, 12.15 -0.93, 31.75 0 M0 31.75 C0.49 10.14, 10.54 -1.22, 31.75 0" stroke="#1e1e1e" stroke-width="1" fill="none"></path></g><g transform="translate(2850.457010388038 916.963387795716) rotate(0 55.18994903564453 12.5)"><text x="55.18994903564453" y="0" font-family="Virgil, Segoe UI Emoji" font-size="20px" fill="#1e1e1e" text-anchor="middle" style="white-space: pre;" direction="ltr" dominant-baseline="text-before-edge">Photo Form</text></g><g stroke-linecap="round" transform="translate(2381.698282239592 825.4397885041112) rotate(0 120.5 109.5)"><path d="M151.25 27.5 M151.25 27.5 C172.18 49.62, 198.03 68.61, 210.75 82.5 M151.25 27.5 C174.63 48.1, 195.59 69.43, 210.75 82.5 M210.75 82.5 C241.04 108.23, 242.58 110.76, 210.75 137.5 M210.75 82.5 C239.06 111.69, 239.35 107.94, 210.75 137.5 M210.75 137.5 C189.25 159.45, 166.04 179.81, 151.25 191.5 M210.75 137.5 C197.49 149.2, 186.55 159.87, 151.25 191.5 M151.25 191.5 C120.65 220.96, 122.03 219.04, 90.75 191.5 M151.25 191.5 C122.76 216.75, 119.32 219.81, 90.75 191.5 M90.75 191.5 C74.81 178.52, 61.04 163.93, 30.25 137.5 M90.75 191.5 C70.48 172.69, 48.9 154.01, 30.25 137.5 M30.25 137.5 C0.8 110.87, -1.96 108.91, 30.25 82.5 M30.25 137.5 C-0.44 111.51, -0.56 111.31, 30.25 82.5 M30.25 82.5 C53.99 61.12, 77.65 38.07, 90.75 27.5 M30.25 82.5 C44.28 69.54, 57.72 57.52, 90.75 27.5 M90.75 27.5 C122.17 1.38, 119.16 -1.42, 151.25 27.5 M90.75 27.5 C120 1.31, 121.28 2.09, 151.25 27.5" stroke="#1e1e1e" stroke-width="1" fill="none"></path></g><g transform="translate(2459.4183139778734 897.6897885041112) rotate(0 43.02996826171875 37.5)"><text x="43.02996826171875" y="0" font-family="Virgil, Segoe UI Emoji" font-size="20px" fill="#1e1e1e" text-anchor="middle" style="white-space: pre;" direction="ltr" dominant-baseline="text-before-edge">User </text><text x="43.02996826171875" y="25" font-family="Virgil, Segoe UI Emoji" font-size="20px" fill="#1e1e1e" text-anchor="middle" style="white-space: pre;" direction="ltr" dominant-baseline="text-before-edge">Uploads </text><text x="43.02996826171875" y="50" font-family="Virgil, Segoe UI Emoji" font-size="20px" fill="#1e1e1e" text-anchor="middle" style="white-space: pre;" direction="ltr" dominant-baseline="text-before-edge">Photo?</text></g><g stroke-linecap="round" transform="translate(2079.5315901416097 867.5229667064225) rotate(0 89.5 63.5)"><path d="M31.75 0 M31.75 0 C73.17 -0.18, 116.76 0.9, 147.25 0 M31.75 0 C62.5 0.12, 94.2 1.38, 147.25 0 M147.25 0 C168.63 -1.82, 180.56 11.65, 179 31.75 M147.25 0 C166.18 -0.01, 179.82 11.96, 179 31.75 M179 31.75 C180.4 58.39, 180.54 81.78, 179 95.25 M179 31.75 C178.19 45.31, 178.09 58.63, 179 95.25 M179 95.25 C180.38 117.95, 167.86 128.06, 147.25 127 M179 95.25 C176.8 115.57, 166.29 128.62, 147.25 127 M147.25 127 C119.46 126.85, 95.02 126.08, 31.75 127 M147.25 127 C118.96 127.38, 91.49 127.49, 31.75 127 M31.75 127 C11.6 125.92, -1.26 117.79, 0 95.25 M31.75 127 C9.04 126.87, 1.19 114.38, 0 95.25 M0 95.25 C0.48 78.21, 1.91 66.45, 0 31.75 M0 95.25 C0.59 83.46, 0.93 70.5, 0 31.75 M0 31.75 C0.35 9.38, 9.42 -0.03, 31.75 0 M0 31.75 C0.6 11.91, 11.33 -2.23, 31.75 0" stroke="#1e1e1e" stroke-width="1" fill="none"></path></g><g transform="translate(2085.3516661303793 906.0229667064225) rotate(0 83.67992401123047 25)"><text x="83.67992401123047" y="0" font-family="Virgil, Segoe UI Emoji" font-size="20px" fill="#1e1e1e" text-anchor="middle" style="white-space: pre;" direction="ltr" dominant-baseline="text-before-edge">Auto Submit </text><text x="83.67992401123047" y="25" font-family="Virgil, Segoe UI Emoji" font-size="20px" fill="#1e1e1e" text-anchor="middle" style="white-space: pre;" direction="ltr" dominant-baseline="text-before-edge">using JS function</text></g><g stroke-linecap="round"><g transform="translate(2809.031971611337 937.3998193316106) rotate(0 -90.17391732958743 -1.114292692058143)"><path d="M-0.05 0.06 C-30.05 -0.17, -149.27 -1.92, -179.28 -2.29 M-1.54 -0.95 C-31.76 -0.89, -150.94 -0.77, -180.3 -0.74" stroke="#1e1e1e" stroke-width="1" fill="none"></path></g><g transform="translate(2809.031971611337 937.3998193316106) rotate(0 -90.17391732958743 -1.114292692058143)"><path d="M-152.01 -11.25 C-162.23 -8.91, -172.1 -3.04, -178.87 -2.67 M-152.39 -11.3 C-160.93 -8.24, -169.38 -5.04, -180.36 -1.02" stroke="#1e1e1e" stroke-width="1" fill="none"></path></g><g transform="translate(2809.031971611337 937.3998193316106) rotate(0 -90.17391732958743 -1.114292692058143)"><path d="M-151.99 9.27 C-162.06 4.26, -171.94 2.78, -178.87 -2.67 M-152.37 9.22 C-160.88 6.32, -169.33 3.57, -180.36 -1.02" stroke="#1e1e1e" stroke-width="1" fill="none"></path></g></g><mask></mask><g mask="url(#mask-p1A1TsJWs2QWAN2ajNdSK)" stroke-linecap="round"><g transform="translate(2381.476489406723 933.7901276073356) rotate(0 -55.01744079913567 0.6601581926265965)"><path d="M0.81 0.85 C-17.71 0.82, -91.51 0.08, -110.31 -0.09 M-0.23 0.25 C-18.9 0.41, -92.61 1.27, -110.84 1.41" stroke="#1e1e1e" stroke-width="1" fill="none"></path></g><g transform="translate(2381.476489406723 933.7901276073356) rotate(0 -55.01744079913567 0.6601581926265965)"><path d="M-81.34 -7.8 C-93.21 -6.59, -103.65 -0.68, -109.28 2.05 M-83.3 -9.56 C-88.11 -7.16, -93.67 -4.62, -111.13 0.65" stroke="#1e1e1e" stroke-width="1" fill="none"></path></g><g transform="translate(2381.476489406723 933.7901276073356) rotate(0 -55.01744079913567 0.6601581926265965)"><path d="M-81.14 12.72 C-93.09 6.39, -103.61 4.76, -109.28 2.05 M-83.1 10.96 C-87.79 9.06, -93.39 7.3, -111.13 0.65" stroke="#1e1e1e" stroke-width="1" fill="none"></path></g></g><mask id="mask-p1A1TsJWs2QWAN2ajNdSK"><rect x="0" y="0" fill="#fff" width="2592.587897664349" height="1033.79351736111"></rect><rect x="2309.8608029781053" y="921.2884327304484" fill="#000" width="32.119964599609375" height="25" opacity="1"></rect></mask><g transform="translate(2309.8608029781053 921.2884327304484) rotate(0 16.598245629481767 13.161853069513796)"><text x="16.059982299804688" y="0" font-family="Virgil, Segoe UI Emoji" font-size="20px" fill="#1e1e1e" text-anchor="middle" style="white-space: pre;" direction="ltr" dominant-baseline="text-before-edge">Yes</text></g><g stroke-linecap="round" transform="translate(1981.0317885058678 501.43991311755514) rotate(0 554.0000915527344 455.99998474121094)"><path d="M32 0 M32 0 C306.29 1.87, 580.3 2.01, 1076 0 M32 0 C323.95 -1.43, 615.65 -1.17, 1076 0 M1076 0 C1095.76 1.26, 1109.25 11.51, 1108 32 M1076 0 C1099.42 0.09, 1108.1 9.04, 1108 32 M1108 32 C1108.21 226.59, 1108.4 420.11, 1108 880 M1108 32 C1105.61 264.83, 1105.63 497.33, 1108 880 M1108 880 C1108.86 900.3, 1097.22 910.29, 1076 912 M1108 880 C1109.59 899.81, 1098.39 913.24, 1076 912 M1076 912 C694.78 912.83, 312.16 913.33, 32 912 M1076 912 C670.44 915.41, 264.18 915.52, 32 912 M32 912 C10.01 910.15, -1.72 899.42, 0 880 M32 912 C10.53 912.03, 1 903.25, 0 880 M0 880 C0.76 628.82, 0.49 377.88, 0 32 M0 880 C-2.46 631.09, -2.52 381.87, 0 32 M0 32 C-1.62 11.8, 9.51 0.31, 32 0 M0 32 C0.92 12.71, 12.61 1.58, 32 0" stroke="#1e1e1e" stroke-width="1" fill="none"></path></g><g transform="translate(2495.698434827482 465.1065492666437) rotate(0 100.18991088867188 12.5)"><text x="0" y="0" font-family="Virgil, Segoe UI Emoji" font-size="20px" fill="#1971c2" text-anchor="start" style="white-space: pre;" direction="ltr" dominant-baseline="text-before-edge">Frontend (index.html)</text></g><g stroke-linecap="round" transform="translate(2613.0318088509193 678.7732362783624) rotate(0 102.6666259765625 44.66667175292969)"><path d="M22.33 0 M22.33 0 C57.81 3.21, 94.57 2.27, 183 0 M22.33 0 C69.09 0.43, 116.58 1.84, 183 0 M183 0 C198.4 1.31, 204.81 5.88, 205.33 22.33 M183 0 C198.17 0.55, 204.39 6.94, 205.33 22.33 M205.33 22.33 C205.03 38.18, 204.53 55.93, 205.33 67 M205.33 22.33 C204.82 32.31, 204.81 44.44, 205.33 67 M205.33 67 C207.23 81.29, 196.17 90.03, 183 89.33 M205.33 67 C205.97 83.44, 199.4 91.48, 183 89.33 M183 89.33 C147.26 87.25, 111.87 89.75, 22.33 89.33 M183 89.33 C132.84 88.69, 83.27 90.26, 22.33 89.33 M22.33 89.33 C5.64 89.16, 1.68 83.13, 0 67 M22.33 89.33 C8.56 89.53, -1.92 80.8, 0 67 M0 67 C1.16 53.67, 0.51 43.52, 0 22.33 M0 67 C0.51 58.72, 0.51 48.47, 0 22.33 M0 22.33 C1.75 6.96, 6.65 1.65, 22.33 0 M0 22.33 C-2.27 5.56, 9.27 1.78, 22.33 0" stroke="#1e1e1e" stroke-width="1" fill="none"></path></g><g transform="translate(2635.2185077644936 710.9399080312921) rotate(0 80.47992706298828 12.5)"><text x="80.47992706298828" y="0" font-family="Virgil, Segoe UI Emoji" font-size="20px" fill="#1e1e1e" text-anchor="middle" style="white-space: pre;" direction="ltr" dominant-baseline="text-before-edge">Listen for Input</text></g><g mask="url(#mask-JR-VS4V_paqBac6Dxj_2o)" stroke-linecap="round"><g transform="translate(2508.5324096147333 818.4411597084786) rotate(0 46.4765490356433 -48.66048020013235)"><path d="M0.79 0.21 C3.19 -14.16, -0.35 -68.9, 15.06 -85.19 C30.46 -101.48, 80.21 -95.58, 93.21 -97.54 M-0.25 -0.72 C1.92 -14.39, -1.34 -67.79, 14.05 -83.75 C29.44 -99.72, 78.97 -94.5, 92.11 -96.5" stroke="#1e1e1e" stroke-width="1" fill="none"></path></g><g transform="translate(2508.5324096147333 818.4411597084786) rotate(0 46.4765490356433 -48.66048020013235)"><path d="M64.61 -85.55 C73.75 -90.56, 83.1 -94.8, 92.28 -95.05 M63.43 -86.06 C72.82 -89.15, 83.69 -92.28, 91.71 -95.52" stroke="#1e1e1e" stroke-width="1" fill="none"></path></g><g transform="translate(2508.5324096147333 818.4411597084786) rotate(0 46.4765490356433 -48.66048020013235)"><path d="M63.97 -106.06 C73.52 -103.77, 83.09 -100.71, 92.28 -95.05 M62.79 -106.57 C72.32 -102.84, 83.4 -99.16, 91.71 -95.52" stroke="#1e1e1e" stroke-width="1" fill="none"></path></g></g><mask id="mask-JR-VS4V_paqBac6Dxj_2o"><rect x="0" y="0" fill="#fff" width="2702.3651014941493" height="1015.4424062994021"></rect><rect x="2511.7185281095462" y="720.9398825999771" fill="#000" width="23.959976196289062" height="25" opacity="1"></rect></mask><g transform="translate(2511.7185281095462 720.939882599977) rotate(0 43.29043054083036 48.84079690836928)"><text x="11.979988098144531" y="0" font-family="Virgil, Segoe UI Emoji" font-size="20px" fill="#1e1e1e" text-anchor="middle" style="white-space: pre;" direction="ltr" dominant-baseline="text-before-edge">No</text></g><g stroke-linecap="round"><g transform="translate(2838.3650608040443 721.4399131175551) rotate(0 39.722345882147806 66.45276832052195)"><path d="M-0.7 1.05 C11.48 3.94, 60.35 -3.56, 73.32 18.16 C86.29 39.88, 76.72 112.21, 77.11 131.36 M1.13 0.56 C13.13 3.03, 59.73 -5.49, 72.36 16.47 C85 38.44, 76.36 113.25, 76.93 132.34" stroke="#1e1e1e" stroke-width="1" fill="none"></path></g><g transform="translate(2838.3650608040443 721.4399131175551) rotate(0 39.722345882147806 66.45276832052195)"><path d="M69.54 103.75 C72.3 114.85, 72.8 121.64, 78.7 133.26 M67.39 103.7 C69.24 109.98, 71.88 118.06, 77.9 132.26" stroke="#1e1e1e" stroke-width="1" fill="none"></path></g><g transform="translate(2838.3650608040443 721.4399131175551) rotate(0 39.722345882147806 66.45276832052195)"><path d="M90.04 104.55 C86.22 115.28, 80.14 121.81, 78.7 133.26 M87.89 104.51 C84.74 110.58, 82.37 118.46, 77.9 132.26" stroke="#1e1e1e" stroke-width="1" fill="none"></path></g></g><mask></mask><g stroke-linecap="round" transform="translate(883.9219630234286 1128.7768731248211) rotate(0 134.66664632161456 70)"><path d="M32 0 M32 0 C87.51 -2.41, 141.15 -0.95, 237.33 0 M32 0 C91.45 -1.29, 148.58 -1.29, 237.33 0 M237.33 0 C259.38 0.43, 270.33 10.1, 269.33 32 M237.33 0 C258.06 0.61, 268.03 9.45, 269.33 32 M269.33 32 C269.53 49.16, 270.28 70.72, 269.33 108 M269.33 32 C268.89 58.41, 269.21 86.87, 269.33 108 M269.33 108 C267.72 130.74, 258.04 139.72, 237.33 140 M269.33 108 C268.88 128.7, 257.99 140.89, 237.33 140 M237.33 140 C171.74 141.56, 103.81 139.65, 32 140 M237.33 140 C183.88 142.29, 129.74 140.95, 32 140 M32 140 C9.34 141.58, 0.22 128.28, 0 108 M32 140 C9.49 139.56, -1.87 127.41, 0 108 M0 108 C1.19 81.22, -0.7 49.07, 0 32 M0 108 C0.41 80.17, -0.72 50.67, 0 32 M0 32 C1.48 12.29, 9.63 -1.94, 32 0 M0 32 C-1.8 12.35, 12.73 0.77, 32 0" stroke="#1e1e1e" stroke-width="1" fill="none"></path></g><g transform="translate(926.5486847234611 1186.2768731248211) rotate(0 92.03992462158203 12.5)"><text x="92.03992462158203" y="0" font-family="Virgil, Segoe UI Emoji" font-size="20px" fill="#1e1e1e" text-anchor="middle" style="white-space: pre;" direction="ltr" dominant-baseline="text-before-edge">Call CountFaces.py</text></g><g stroke-linecap="round" transform="translate(1120.129012579189 570.0739193701464) rotate(0 158 53.5)"><path d="M26.75 0 M26.75 0 C101.37 1.73, 174.23 2.87, 289.25 0 M26.75 0 C80.56 1.52, 135.44 0.52, 289.25 0 M289.25 0 C308.17 -0.33, 317.81 9.53, 316 26.75 M289.25 0 C307.99 -2.14, 317.36 9.17, 316 26.75 M316 26.75 C315.56 38.81, 314.97 48.61, 316 80.25 M316 26.75 C314.85 41.36, 316.23 55.17, 316 80.25 M316 80.25 C315.84 99.5, 306.96 107.18, 289.25 107 M316 80.25 C315.09 98.62, 305.29 105.56, 289.25 107 M289.25 107 C199.85 105.27, 110.28 106.28, 26.75 107 M289.25 107 C213.48 104.92, 138.43 105.67, 26.75 107 M26.75 107 C10.35 106.37, 1.68 99, 0 80.25 M26.75 107 C8.54 108.75, 1.13 97.6, 0 80.25 M0 80.25 C-0.26 69.48, -1.43 55.93, 0 26.75 M0 80.25 C-0.51 65.7, -0.8 49.48, 0 26.75 M0 26.75 C0.02 10.21, 7.52 -1.96, 26.75 0 M0 26.75 C-0.06 10.95, 9.1 0.26, 26.75 0" stroke="#1e1e1e" stroke-width="1" fill="none"></path></g><g transform="translate(1172.599112982021 598.5739193701464) rotate(0 105.52989959716797 25)"><text x="105.52989959716797" y="0" font-family="Virgil, Segoe UI Emoji" font-size="20px" fill="#1e1e1e" text-anchor="middle" style="white-space: pre;" direction="ltr" dominant-baseline="text-before-edge">Load Haarcascade </text><text x="105.52989959716797" y="25" font-family="Virgil, Segoe UI Emoji" font-size="20px" fill="#1e1e1e" text-anchor="middle" style="white-space: pre;" direction="ltr" dominant-baseline="text-before-edge">frontalface classifier</text></g><g stroke-linecap="round" transform="translate(1120.01280936093 378.1653750450112) rotate(0 159 54)"><path d="M27 0 M27 0 C124.15 0.39, 217.06 0.19, 291 0 M27 0 C113.15 -0.37, 200.49 -0.01, 291 0 M291 0 C309.12 1.62, 319.8 7.27, 318 27 M291 0 C307.42 2.03, 320.02 7.25, 318 27 M318 27 C318.04 47.31, 316.71 68.48, 318 81 M318 27 C319.3 43.47, 319.42 62.28, 318 81 M318 81 C317.19 98.15, 310.14 108.91, 291 108 M318 81 C319.34 100.69, 308.39 107.72, 291 108 M291 108 C237.66 109.23, 186.19 110.9, 27 108 M291 108 C214.42 106.81, 137.29 107.17, 27 108 M27 108 C8.27 106.65, 1.19 97.23, 0 81 M27 108 C10.02 108.39, -1.07 98.98, 0 81 M0 81 C-0.47 70.61, -0.29 58.43, 0 27 M0 81 C-0.61 65.89, -0.5 48.91, 0 27 M0 27 C-1.4 7.71, 8.72 0.16, 27 0 M0 27 C-1.27 9.93, 7.58 1.52, 27 0" stroke="#1e1e1e" stroke-width="1" fill="none"></path></g><g transform="translate(1143.9629131206957 419.6653750450112) rotate(0 135.04989624023438 12.5)"><text x="135.04989624023438" y="0" font-family="Virgil, Segoe UI Emoji" font-size="20px" fill="#1e1e1e" text-anchor="middle" style="white-space: pre;" direction="ltr" dominant-baseline="text-before-edge">Convert image to grayscale</text></g><g stroke-linecap="round" transform="translate(1122.729637383079 197.045943190768) rotate(0 159 54)"><path d="M27 0 M27 0 C104.79 -1.43, 183.86 -2.71, 291 0 M27 0 C119.29 -1.18, 211.41 -0.31, 291 0 M291 0 C310.82 1.05, 317.52 7.22, 318 27 M291 0 C307.39 -0.93, 316.85 8.69, 318 27 M318 27 C316.65 44.33, 319.7 61.17, 318 81 M318 27 C318.4 47.01, 318.71 67.19, 318 81 M318 81 C317.09 98.83, 308.47 106.3, 291 108 M318 81 C317.68 99.32, 308.77 109.64, 291 108 M291 108 C234.85 105.57, 178.11 106.49, 27 108 M291 108 C217.61 109.72, 144.13 109.95, 27 108 M27 108 C8.54 106.34, -0.5 98.16, 0 81 M27 108 C9.07 109.07, 0.89 99.67, 0 81 M0 81 C-1.81 62.2, 0.54 47.65, 0 27 M0 81 C1.1 62.12, 0.32 43.54, 0 27 M0 27 C1.17 8.19, 9.42 -0.75, 27 0 M0 27 C0.51 10.38, 11.29 -1.48, 27 0" stroke="#1e1e1e" stroke-width="1" fill="none"></path></g><g transform="translate(1166.9497454153056 238.545943190768) rotate(0 114.77989196777344 12.5)"><text x="114.77989196777344" y="0" font-family="Virgil, Segoe UI Emoji" font-size="20px" fill="#1e1e1e" text-anchor="middle" style="white-space: pre;" direction="ltr" dominant-baseline="text-before-edge">Perform face detection</text></g><g stroke-linecap="round" transform="translate(718.7022975746037 188.4940744573878) rotate(0 159 54.5)"><path d="M27.25 0 M27.25 0 C90.21 2.1, 150.69 1.56, 290.75 0 M27.25 0 C122.99 -0.83, 216.92 -0.63, 290.75 0 M290.75 0 C310.25 1.68, 319.96 10.08, 318 27.25 M290.75 0 C307.06 -0.51, 316.39 11.38, 318 27.25 M318 27.25 C319.95 42.11, 319.63 57.88, 318 81.75 M318 27.25 C318.57 49.34, 318 69.4, 318 81.75 M318 81.75 C318.77 98.36, 309.93 109, 290.75 109 M318 81.75 C316.13 102.19, 310.4 107.26, 290.75 109 M290.75 109 C186.74 112.08, 82.85 110.53, 27.25 109 M290.75 109 C212.71 111.3, 134.54 110.62, 27.25 109 M27.25 109 C9.94 110.18, 1.71 99.27, 0 81.75 M27.25 109 C8.41 107.51, -1.88 100.21, 0 81.75 M0 81.75 C-0.3 65.94, -1.74 51.79, 0 27.25 M0 81.75 C0.07 65.98, -0.78 47.94, 0 27.25 M0 27.25 C-0.22 7.2, 7.54 -0.26, 27.25 0 M0 27.25 C1.47 9.85, 7.01 0.36, 27.25 0" stroke="#1e1e1e" stroke-width="1" fill="none"></path></g><g transform="translate(738.982418424213 217.9940744573878) rotate(0 138.71987915039062 25)"><text x="138.71987915039062" y="0" font-family="Virgil, Segoe UI Emoji" font-size="20px" fill="#1e1e1e" text-anchor="middle" style="white-space: pre;" direction="ltr" dominant-baseline="text-before-edge">Sort the faces based on X-</text><text x="138.71987915039062" y="25" font-family="Virgil, Segoe UI Emoji" font-size="20px" fill="#1e1e1e" text-anchor="middle" style="white-space: pre;" direction="ltr" dominant-baseline="text-before-edge">coordinate</text></g><g stroke-linecap="round" transform="translate(290.8980174795952 187.76669991224333) rotate(0 159 57.5)"><path d="M28.75 0 M28.75 0 C122.2 -0.17, 219.09 1.61, 289.25 0 M28.75 0 C100.92 -2.34, 173.25 -1.54, 289.25 0 M289.25 0 C306.65 1.38, 318.11 8.77, 318 28.75 M289.25 0 C309.48 2.27, 320.06 8.76, 318 28.75 M318 28.75 C316.99 49.47, 316.65 70.31, 318 86.25 M318 28.75 C317.33 42.93, 317.9 57.97, 318 86.25 M318 86.25 C317.94 103.7, 309.71 113.8, 289.25 115 M318 86.25 C319.39 103.73, 308.43 113.5, 289.25 115 M289.25 115 C206.94 113.03, 128.89 114.1, 28.75 115 M289.25 115 C191.64 115.84, 93.35 116.42, 28.75 115 M28.75 115 C8.22 116.39, -1.69 106.36, 0 86.25 M28.75 115 C8.99 114.5, -0.8 107.26, 0 86.25 M0 86.25 C1.35 70.38, -0.61 54.91, 0 28.75 M0 86.25 C0.33 65.44, 1.46 46.12, 0 28.75 M0 28.75 C-1.63 9.25, 9.32 -0.32, 28.75 0 M0 28.75 C0.07 9.7, 10.55 2.08, 28.75 0" stroke="#1e1e1e" stroke-width="1" fill="none"></path></g><g transform="translate(296.43814809482956 220.26669991224333) rotate(0 153.45986938476562 25)"><text x="153.45986938476562" y="0" font-family="Virgil, Segoe UI Emoji" font-size="20px" fill="#1e1e1e" text-anchor="middle" style="white-space: pre;" direction="ltr" dominant-baseline="text-before-edge">Draw rectangles around </text><text x="153.45986938476562" y="25" font-family="Virgil, Segoe UI Emoji" font-size="20px" fill="#1e1e1e" text-anchor="middle" style="white-space: pre;" direction="ltr" dominant-baseline="text-before-edge">detected faces and label them</text></g><g stroke-linecap="round" transform="translate(298.38799700959294 382.63214037436273) rotate(0 159 54.5)"><path d="M27.25 0 M27.25 0 C118.21 1.21, 209.16 -1.16, 290.75 0 M27.25 0 C84.35 -1.51, 141.79 -2.52, 290.75 0 M290.75 0 C307.79 0.97, 317 8.62, 318 27.25 M290.75 0 C308.21 -0.37, 316.53 10.56, 318 27.25 M318 27.25 C317.3 48.39, 318.04 70.06, 318 81.75 M318 27.25 C318.48 46.59, 317.23 67.84, 318 81.75 M318 81.75 C316.25 100.69, 308.64 107.06, 290.75 109 M318 81.75 C319.61 101.71, 307.37 106.78, 290.75 109 M290.75 109 C218.33 108.97, 146.87 111.59, 27.25 109 M290.75 109 C217.65 110.86, 145.12 110.08, 27.25 109 M27.25 109 C9.42 110.32, 1.38 100.02, 0 81.75 M27.25 109 C8.18 108.55, 1.52 101.22, 0 81.75 M0 81.75 C-1.64 66.59, -1.22 50.3, 0 27.25 M0 81.75 C0.42 65.31, 0.54 46.84, 0 27.25 M0 27.25 C0.06 9.8, 10.1 -1.53, 27.25 0 M0 27.25 C-0.22 7.41, 10.78 -1.98, 27.25 0" stroke="#1e1e1e" stroke-width="1" fill="none"></path></g><g transform="translate(337.75811419709294 424.63214037436273) rotate(0 119.6298828125 12.5)"><text x="119.6298828125" y="0" font-family="Virgil, Segoe UI Emoji" font-size="20px" fill="#1e1e1e" text-anchor="middle" style="white-space: pre;" direction="ltr" dominant-baseline="text-before-edge">Highlight faces detected</text></g><g stroke-linecap="round" transform="translate(302.31126110568414 576.4251141992523) rotate(0 159 49.5)"><path d="M24.75 0 M24.75 0 C88.66 3.12, 152.28 2.27, 293.25 0 M24.75 0 C114.28 -0.77, 202.69 0.28, 293.25 0 M293.25 0 C310.62 -0.92, 319.47 8, 318 24.75 M293.25 0 C309.51 -0.21, 319.88 7.39, 318 24.75 M318 24.75 C319.6 40.44, 318.11 54.75, 318 74.25 M318 24.75 C317.79 38.75, 317.49 51.79, 318 74.25 M318 74.25 C318.35 92.09, 310.01 99.12, 293.25 99 M318 74.25 C316.13 90.12, 309.79 100.56, 293.25 99 M293.25 99 C216.51 98.83, 138.08 98.76, 24.75 99 M293.25 99 C210.79 97.59, 128.61 97.43, 24.75 99 M24.75 99 C8.16 97.17, 1.36 90.25, 0 74.25 M24.75 99 C10.27 97.63, 1.66 90.42, 0 74.25 M0 74.25 C-0.64 61.94, 1.63 54.35, 0 24.75 M0 74.25 C-0.62 61.66, -0.96 50.74, 0 24.75 M0 24.75 C1.97 9, 9.45 1.92, 24.75 0 M0 24.75 C0.23 8.16, 7.95 1.8, 24.75 0" stroke="#1e1e1e" stroke-width="1" fill="none"></path></g><g transform="translate(310.54139416232476 600.9251141992523) rotate(0 150.76986694335938 25)"><text x="150.76986694335938" y="0" font-family="Virgil, Segoe UI Emoji" font-size="20px" fill="#1e1e1e" text-anchor="middle" style="white-space: pre;" direction="ltr" dominant-baseline="text-before-edge">Save indiviual &amp; group image in</text><text x="150.76986694335938" y="25" font-family="Virgil, Segoe UI Emoji" font-size="20px" fill="#1e1e1e" text-anchor="middle" style="white-space: pre;" direction="ltr" dominant-baseline="text-before-edge">static/uploads/ folder</text></g><g mask="url(#mask-U2qc8PVef8jBRseRSKUSu)" stroke-linecap="round"><g transform="translate(1150.9428758291428 1107.7092408707576) rotate(0 67.02719132786326 -206.21748787155494)"><path d="M0.49 -1 C20.48 -19.81, 96.73 -43.99, 119.1 -112.4 C141.48 -180.8, 132.15 -361.69, 134.76 -411.45 M-0.71 1.09 C19.15 -18.08, 95.45 -44.86, 117.94 -113.96 C140.42 -183.07, 131.3 -363.69, 134.18 -413.52" stroke="#1e1e1e" stroke-width="1" fill="none"></path></g><g transform="translate(1150.9428758291428 1107.7092408707576) rotate(0 67.02719132786326 -206.21748787155494)"><path d="M142.57 -385.96 C143.53 -391.24, 140.28 -397.81, 135.89 -411.77 M144.44 -384.38 C140.42 -395.31, 138.03 -404.76, 134.69 -413.54" stroke="#1e1e1e" stroke-width="1" fill="none"></path></g><g transform="translate(1150.9428758291428 1107.7092408707576) rotate(0 67.02719132786326 -206.21748787155494)"><path d="M122.05 -386.11 C127.81 -391.44, 129.35 -397.98, 135.89 -411.77 M123.92 -384.53 C126.87 -395.52, 131.45 -404.91, 134.69 -413.54" stroke="#1e1e1e" stroke-width="1" fill="none"></path></g></g><mask id="mask-U2qc8PVef8jBRseRSKUSu"><rect x="0" y="0" fill="#fff" width="1385.3539761537156" height="1619.6722849203136"></rect><rect x="1174.2676684233763" y="981.7571741123288" fill="#000" width="192.39984130859375" height="25" opacity="1"></rect></mask><g transform="translate(1174.2676684233763 981.7571741123288) rotate(0 43.70239873362969 -80.26542111312617)"><text x="96.19992065429688" y="0" font-family="Virgil, Segoe UI Emoji" font-size="20px" fill="#1e1e1e" text-anchor="middle" style="white-space: pre;" direction="ltr" dominant-baseline="text-before-edge">2) Send input image</text></g><g stroke-linecap="round"><g transform="translate(1280.1047967521836 554.5313191054487) rotate(0 -0.45298592477408306 -29.138015165336157)"><path d="M-0.77 -0.76 C-1.08 -10.75, -1.89 -49.78, -1.94 -59.74 M1.02 1.46 C1.1 -8.37, 0.81 -48.17, 0.33 -58.38" stroke="#1e1e1e" stroke-width="1" fill="none"></path></g><g transform="translate(1280.1047967521836 554.5313191054487) rotate(0 -0.45298592477408306 -29.138015165336157)"><path d="M9.9 -32.12 C7.36 -38.87, 2.87 -46.91, 2.01 -56.93 M12.03 -30.98 C8.02 -35.9, 5.82 -42.27, 0.68 -58.51" stroke="#1e1e1e" stroke-width="1" fill="none"></path></g><g transform="translate(1280.1047967521836 554.5313191054487) rotate(0 -0.45298592477408306 -29.138015165336157)"><path d="M-10.42 -31.63 C-6.99 -38.39, -5.52 -46.58, 2.01 -56.93 M-8.28 -30.49 C-7.99 -35.64, -5.89 -42.11, 0.68 -58.51" stroke="#1e1e1e" stroke-width="1" fill="none"></path></g></g><mask></mask><g stroke-linecap="round"><g transform="translate(1282.3045708612767 364.2479635667895) rotate(0 -0.01718357830441164 -22.797493048614612)"><path d="M-0.77 -0.1 C-1 -7.73, -0.53 -37.97, -0.45 -45.49 M1.02 -1.2 C0.62 -8.68, -0.77 -37.04, -1.06 -44.16" stroke="#1e1e1e" stroke-width="1" fill="none"></path></g><g transform="translate(1282.3045708612767 364.2479635667895) rotate(0 -0.01718357830441164 -22.797493048614612)"><path d="M7.43 -22.26 C3.64 -29.93, 0.86 -40.04, -0.16 -42.4 M7.51 -23.52 C4.5 -27.68, 3.04 -34.26, -1.35 -43.26" stroke="#1e1e1e" stroke-width="1" fill="none"></path></g><g transform="translate(1282.3045708612767 364.2479635667895) rotate(0 -0.01718357830441164 -22.797493048614612)"><path d="M-7.98 -21.56 C-5.98 -29.39, -2.97 -39.77, -0.16 -42.4 M-7.9 -22.82 C-6.99 -27.15, -4.53 -33.9, -1.35 -43.26" stroke="#1e1e1e" stroke-width="1" fill="none"></path></g></g><mask></mask><g stroke-linecap="round"><g transform="translate(1108.5197728888247 258.6571699682602) rotate(0 -32.300568626229314 -0.682903144947602)"><path d="M-1.15 -0.97 C-11.71 -1.12, -53.79 -0.43, -64.37 -0.62 M0.45 1.13 C-10.14 0.59, -54.09 -2.08, -65.05 -2.5" stroke="#1e1e1e" stroke-width="1" fill="none"></path></g><g transform="translate(1108.5197728888247 258.6571699682602) rotate(0 -32.300568626229314 -0.682903144947602)"><path d="M-38 -10.45 C-41.78 -9.29, -50.51 -7.49, -64.74 -1.52 M-37.09 -12.09 C-44.33 -9.58, -51.65 -7.6, -65.84 -3.26" stroke="#1e1e1e" stroke-width="1" fill="none"></path></g><g transform="translate(1108.5197728888247 258.6571699682602) rotate(0 -32.300568626229314 -0.682903144947602)"><path d="M-39.04 10.05 C-42.64 6.77, -51.14 4.12, -64.74 -1.52 M-38.13 8.4 C-45.17 5.55, -52.23 2.16, -65.84 -3.26" stroke="#1e1e1e" stroke-width="1" fill="none"></path></g></g><mask></mask><g stroke-linecap="round"><g transform="translate(705.9549850565633 244.35842846914733) rotate(0 -39.832560329098385 2.5735069297645623)"><path d="M-1.02 0.52 C-14.21 1.38, -67.11 4.91, -80.3 5.39 M0.64 -0.25 C-12.09 0.27, -65.09 3.04, -78.17 3.79" stroke="#1e1e1e" stroke-width="1" fill="none"></path></g><g transform="translate(705.9549850565633 244.35842846914733) rotate(0 -39.832560329098385 2.5735069297645623)"><path d="M-49.71 -9.83 C-54.48 -7.52, -63.31 -1.61, -77.97 2.83 M-50.68 -7.38 C-57.93 -4.3, -66.81 -2.29, -78.41 4.06" stroke="#1e1e1e" stroke-width="1" fill="none"></path></g><g transform="translate(705.9549850565633 244.35842846914733) rotate(0 -39.832560329098385 2.5735069297645623)"><path d="M-48.59 10.66 C-53.64 8.82, -62.69 10.58, -77.97 2.83 M-49.56 13.11 C-56.97 10.47, -66.16 6.76, -78.41 4.06" stroke="#1e1e1e" stroke-width="1" fill="none"></path></g></g><mask></mask><g stroke-linecap="round"><g transform="translate(462.87625369764055 318.0519939898077) rotate(0 0.34479887163979583 26.175574172659793)"><path d="M-0.32 -0.37 C-0.54 8.51, -1.06 43.95, -1.05 52.93 M1.71 -1.61 C1.84 7.42, 1.59 44.59, 1.11 53.96" stroke="#1e1e1e" stroke-width="1" fill="none"></path></g><g transform="translate(462.87625369764055 318.0519939898077) rotate(0 0.34479887163979583 26.175574172659793)"><path d="M-8.08 26.66 C-6.41 36.16, -2.75 45.05, 2.92 52.22 M-6.61 29.22 C-6.38 34.88, -2.78 40.14, 1.58 53.74" stroke="#1e1e1e" stroke-width="1" fill="none"></path></g><g transform="translate(462.87625369764055 318.0519939898077) rotate(0 0.34479887163979583 26.175574172659793)"><path d="M10.34 27.13 C6.13 36.43, 3.91 45.17, 2.92 52.22 M11.82 29.69 C8.07 35.26, 7.69 40.42, 1.58 53.74" stroke="#1e1e1e" stroke-width="1" fill="none"></path></g></g><mask></mask><g stroke-linecap="round"><g transform="translate(459.57655057599936 501.7359432851845) rotate(0 -0.9425160436132103 30.62367215485469)"><path d="M-0.23 -0.72 C-0.14 9.52, 0.05 51.72, -0.23 61.96 M-1.8 1.52 C-1.73 11.33, -1.12 50.02, -0.72 60.03" stroke="#1e1e1e" stroke-width="1" fill="none"></path></g><g transform="translate(459.57655057599936 501.7359432851845) rotate(0 -0.9425160436132103 30.62367215485469)"><path d="M-12.9 33.57 C-8.36 37.41, -7.8 45.76, -0.8 59.5 M-12.29 32.23 C-8.18 41.6, -5.01 52.83, 0.14 59.73" stroke="#1e1e1e" stroke-width="1" fill="none"></path></g><g transform="translate(459.57655057599936 501.7359432851845) rotate(0 -0.9425160436132103 30.62367215485469)"><path d="M7.61 33.04 C7.29 36.97, 2.99 45.45, -0.8 59.5 M8.22 31.7 C5.08 41.21, 1 52.63, 0.14 59.73" stroke="#1e1e1e" stroke-width="1" fill="none"></path></g></g><mask></mask><g mask="url(#mask-LTNy1c_SX9kNF9lbS3Ujv)" stroke-linecap="round"><g transform="translate(465.64364909675 685.1710526095694) rotate(0 201.81509481280207 259.1458350866032)"><path d="M0.77 -0.87 C19.75 64.64, 46 305.51, 112.78 391.96 C179.55 478.41, 353.2 496.98, 401.4 517.82 M-0.28 1.28 C18.74 67.04, 45.07 306.83, 112.43 393.15 C179.8 479.46, 355.63 498.41, 403.92 519.17" stroke="#1e1e1e" stroke-width="1" fill="none"></path></g><g transform="translate(465.64364909675 685.1710526095694) rotate(0 201.81509481280207 259.1458350866032)"><path d="M372.54 523.36 C379.08 519.55, 386.45 520.05, 402.63 519.98 M373.64 520.59 C381.28 521.42, 389.78 521.46, 403.89 518.93" stroke="#1e1e1e" stroke-width="1" fill="none"></path></g><g transform="translate(465.64364909675 685.1710526095694) rotate(0 201.81509481280207 259.1458350866032)"><path d="M378.09 503.6 C383.29 503.91, 389.53 508.49, 402.63 519.98 M379.18 500.83 C385.34 506.57, 392.46 511.55, 403.89 518.93" stroke="#1e1e1e" stroke-width="1" fill="none"></path></g></g><mask id="mask-LTNy1c_SX9kNF9lbS3Ujv"><rect x="0" y="0" fill="#fff" width="967.7788782086432" height="1302.939289833218"></rect><rect x="463.725299202115" y="1065.3031007122117" fill="#000" width="227.079833984375" height="25" opacity="1"></rect></mask><g transform="translate(463.725299202115 1065.3031007122117) rotate(0 203.73344470743703 -120.98621301603902)"><text x="113.5399169921875" y="0" font-family="Virgil, Segoe UI Emoji" font-size="20px" fill="#1e1e1e" text-anchor="middle" style="white-space: pre;" direction="ltr" dominant-baseline="text-before-edge">3) Return no. of faces</text></g><g stroke-linecap="round" transform="translate(130.08046939540054 56.227198207993524) rotate(0 737.0846954906142 349.4138762582431)"><path d="M32 0 M32 0 C483.41 1.63, 933.8 1.63, 1442.17 0 M32 0 C321.12 2.72, 610.69 3.12, 1442.17 0 M1442.17 0 C1462.1 1.08, 1474.93 9.02, 1474.17 32 M1442.17 0 C1465.31 -1.27, 1472.4 9.29, 1474.17 32 M1474.17 32 C1475.85 216.67, 1475.41 401.7, 1474.17 666.83 M1474.17 32 C1472.43 264.83, 1471.83 498.13, 1474.17 666.83 M1474.17 666.83 C1475 689.22, 1461.62 698.02, 1442.17 698.83 M1474.17 666.83 C1473.96 688.6, 1465.35 697.74, 1442.17 698.83 M1442.17 698.83 C1130.51 697.65, 818.4 697.86, 32 698.83 M1442.17 698.83 C1084.08 699.6, 725.94 699.39, 32 698.83 M32 698.83 C10.14 700.18, -1.88 688.91, 0 666.83 M32 698.83 C9.27 699.61, 0.93 687.57, 0 666.83 M0 666.83 C-2.12 440.58, -2.23 213.88, 0 32 M0 666.83 C-0.75 466.18, -0.48 265.65, 0 32 M0 32 C-0.97 12.37, 11.14 1.41, 32 0 M0 32 C-0.94 10.68, 12.51 -0.76, 32 0" stroke="#1e1e1e" stroke-width="1" fill="none"></path></g><g transform="translate(818.1792289794623 10) rotate(0 68.66993713378906 12.5)"><text x="0" y="0" font-family="Virgil, Segoe UI Emoji" font-size="20px" fill="#1971c2" text-anchor="start" style="white-space: pre;" direction="ltr" dominant-baseline="text-before-edge">CountFaces.py</text></g><g stroke-linecap="round" transform="translate(854.8176081764448 1390.3845970029006) rotate(0 164.74146313670553 99.21933452591702)"><path d="M32 0 M32 0 C118.25 -1.94, 207.66 0.53, 297.48 0 M32 0 C102.44 1.6, 172.19 0.92, 297.48 0 M297.48 0 C317.19 -0.76, 331.43 10.45, 329.48 32 M297.48 0 C317.44 -0.66, 330.27 9.77, 329.48 32 M329.48 32 C328.44 73, 328.02 116.5, 329.48 166.44 M329.48 32 C329.5 70.55, 329.6 108.93, 329.48 166.44 M329.48 166.44 C327.75 187.51, 319.74 198.15, 297.48 198.44 M329.48 166.44 C330.23 189.65, 317.37 196.82, 297.48 198.44 M297.48 198.44 C222.23 198.78, 145.13 197.97, 32 198.44 M297.48 198.44 C197.88 200.23, 97.56 200.1, 32 198.44 M32 198.44 C10.57 198.62, -1.69 188.35, 0 166.44 M32 198.44 C10.49 198.49, -1.38 186.93, 0 166.44 M0 166.44 C1.26 119.11, 2.69 74.36, 0 32 M0 166.44 C1.7 123.24, 1.56 78.18, 0 32 M0 32 C-1.46 10.57, 12.03 0.59, 32 0 M0 32 C-0.62 11.69, 12.44 -1.52, 32 0" stroke="#1e1e1e" stroke-width="1" fill="none"></path></g><g transform="translate(879.3591964352206 1477.1039315288176) rotate(0 140.1998748779297 12.5)"><text x="140.1998748779297" y="0" font-family="Virgil, Segoe UI Emoji" font-size="20px" fill="#1e1e1e" text-anchor="middle" style="white-space: pre;" direction="ltr" dominant-baseline="text-before-edge">Render index.html (homepage)</text></g><g stroke-linecap="round" transform="translate(448.63248520012223 917.970639945644) rotate(0 565.3626535443923 398.7491571354397)"><path d="M32 0 M32 0 C368.38 -3.67, 703.32 -3.96, 1098.73 0 M32 0 C312.94 -2.49, 593.44 -2.34, 1098.73 0 M1098.73 0 C1119.59 -0.04, 1129.18 9.71, 1130.73 32 M1098.73 0 C1121.13 -0.17, 1128.96 10.12, 1130.73 32 M1130.73 32 C1130.75 237.52, 1131.09 441.39, 1130.73 765.5 M1130.73 32 C1131 256.4, 1131.2 480.09, 1130.73 765.5 M1130.73 765.5 C1131.48 788.12, 1121.27 798.94, 1098.73 797.5 M1130.73 765.5 C1131.94 789.13, 1120.3 799.3, 1098.73 797.5 M1098.73 797.5 C869.66 798.34, 640.19 798.48, 32 797.5 M1098.73 797.5 C880.95 799.57, 662.53 799.31, 32 797.5 M32 797.5 C11.93 795.7, -0.24 785.13, 0 765.5 M32 797.5 C10.5 798.71, 1.69 786.83, 0 765.5 M0 765.5 C-0.72 512.46, -0.36 261.31, 0 32 M0 765.5 C2.12 572.02, 2.29 378.33, 0 32 M0 32 C1.76 11.09, 9.66 -0.2, 32 0 M0 32 C-0.42 12.35, 11.97 1.52, 32 0" stroke="#1e1e1e" stroke-width="1" fill="none"></path></g><g transform="translate(992.9343359507839 874.913231962534) rotate(0 28.889968872070312 12.5)"><text x="0" y="0" font-family="Virgil, Segoe UI Emoji" font-size="20px" fill="#1971c2" text-anchor="start" style="white-space: pre;" direction="ltr" dominant-baseline="text-before-edge">app.py</text></g><g stroke-linecap="round"><g transform="translate(1208.6894913046333 1495.307038019539) rotate(0 670.7962944741789 -28.60408611962214)"><path d="M-0.44 -0.02 C197.2 -1.19, 961.55 2.1, 1185.29 -7.42 C1409.04 -16.95, 1315.7 -49.07, 1342.03 -57.18 M1.53 -1.08 C199.08 -2.57, 961.22 -0.13, 1184.49 -9.29 C1407.76 -18.44, 1315.15 -47.86, 1341.15 -56.01" stroke="#1e1e1e" stroke-width="1" fill="none"></path></g><g transform="translate(1208.6894913046333 1495.307038019539) rotate(0 670.7962944741789 -28.60408611962214)"><path d="M1343.96 -25.69 C1344.2 -34.16, 1342.18 -39.64, 1342.49 -55.94 M1344.78 -25.36 C1343.75 -35.65, 1343.53 -44.89, 1340.41 -55.57" stroke="#1e1e1e" stroke-width="1" fill="none"></path></g><g transform="translate(1208.6894913046333 1495.307038019539) rotate(0 670.7962944741789 -28.60408611962214)"><path d="M1324.09 -30.84 C1329.38 -37.93, 1332.43 -42.09, 1342.49 -55.94 M1324.92 -30.52 C1329.85 -39.33, 1335.64 -47.01, 1340.41 -55.57" stroke="#1e1e1e" stroke-width="1" fill="none"></path></g></g><mask></mask><g stroke-linecap="round" transform="translate(10 1403.1866453659532) rotate(0 142.97223208454272 81.87294497313758)"><path d="M32 0 M32 0 C101.02 1.36, 171 -0.23, 253.94 0 M32 0 C112.55 0.06, 193.6 -0.56, 253.94 0 M253.94 0 C277 0.85, 284.35 12.35, 285.94 32 M253.94 0 C276.05 -1.17, 286.3 9.25, 285.94 32 M285.94 32 C283.89 63.31, 284 95.47, 285.94 131.75 M285.94 32 C284.54 61, 285.8 92.14, 285.94 131.75 M285.94 131.75 C284.66 152, 273.93 164.7, 253.94 163.75 M285.94 131.75 C286.58 150.82, 273.64 164.23, 253.94 163.75 M253.94 163.75 C203.36 165.84, 154.12 163.52, 32 163.75 M253.94 163.75 C200.3 164.08, 146.45 164.51, 32 163.75 M32 163.75 C8.98 164.93, -0.56 151.98, 0 131.75 M32 163.75 C10.82 164.43, -1.89 151.13, 0 131.75 M0 131.75 C-0.85 110.58, -0.37 91.85, 0 32 M0 131.75 C0.24 96.7, -0.07 61.38, 0 32 M0 32 C1.43 11.56, 10.69 -1.66, 32 0 M0 32 C-1.38 8.57, 9.47 2.1, 32 0" stroke="#1e1e1e" stroke-width="1" fill="none"></path></g><g transform="translate(124.62225649860522 1472.5595903390908) rotate(0 28.3499755859375 12.5)"><text x="28.3499755859375" y="0" font-family="Virgil, Segoe UI Emoji" font-size="20px" fill="#e03131" text-anchor="middle" style="white-space: pre;" direction="ltr" dominant-baseline="text-before-edge">Start</text></g><g stroke-linecap="round"><g transform="translate(303.63105482462583 1492.7136241078838) rotate(0 267.86122592735114 -0.487697137760847)"><path d="M0.74 -0.85 C89.55 -1.39, 445 -2.21, 533.91 -2.3 M-0.33 1.32 C88.74 0.82, 446.55 -1.01, 536.05 -1.24" stroke="#e03131" stroke-width="1" fill="none"></path></g><g transform="translate(303.63105482462583 1492.7136241078838) rotate(0 267.86122592735114 -0.487697137760847)"><path d="M506.49 7.32 C517.24 3.55, 529.68 1.52, 536.6 -0.04 M508.23 9.01 C516.35 4.82, 525.1 2.62, 536.34 -1.29" stroke="#e03131" stroke-width="1" fill="none"></path></g><g transform="translate(303.63105482462583 1492.7136241078838) rotate(0 267.86122592735114 -0.487697137760847)"><path d="M506.41 -13.21 C517.35 -8.99, 529.83 -3.05, 536.6 -0.04 M508.14 -11.51 C516.42 -9.08, 525.2 -4.66, 536.34 -1.29" stroke="#e03131" stroke-width="1" fill="none"></path></g></g><mask></mask><g mask="url(#mask-fXD02P044-QdRsEkLv-PY)" stroke-linecap="round"><g transform="translate(1182.610651340509 1236.426726163157) rotate(0 595.345364751191 -1.2933143038042658)"><path d="M-0.43 0.73 C198.17 0.13, 992.64 -2.88, 1191.12 -3.32 M1.55 0.07 C200.07 -0.42, 992.39 -1.48, 1190.39 -2.14" stroke="#1e1e1e" stroke-width="1" fill="none"></path></g><g transform="translate(1182.610651340509 1236.426726163157) rotate(0 595.345364751191 -1.2933143038042658)"><path d="M1163.44 8.87 C1168.35 5.13, 1177.96 3.08, 1191.85 -2.06 M1162.9 8.18 C1171.53 4.16, 1181.07 1.1, 1191.21 -3.01" stroke="#1e1e1e" stroke-width="1" fill="none"></path></g><g transform="translate(1182.610651340509 1236.426726163157) rotate(0 595.345364751191 -1.2933143038042658)"><path d="M1163.4 -11.65 C1168.37 -10.08, 1177.99 -6.81, 1191.85 -2.06 M1162.85 -12.34 C1171.6 -9.53, 1181.15 -5.75, 1191.21 -3.01" stroke="#1e1e1e" stroke-width="1" fill="none"></path></g></g><mask id="mask-fXD02P044-QdRsEkLv-PY"><rect x="0" y="0" fill="#fff" width="2473.316196218845" height="1339.060342099444"></rect><rect x="1677.4335012943257" y="1222.6099181950135" fill="#000" width="201.05984497070312" height="25" opacity="1"></rect></mask><g transform="translate(1677.4335012943254 1222.6099181950133) rotate(0 100.52251479737453 12.523493664339242)"><text x="100.52992248535156" y="0" font-family="Virgil, Segoe UI Emoji" font-size="20px" fill="#1e1e1e" text-anchor="middle" style="white-space: pre;" direction="ltr" dominant-baseline="text-before-edge">4) Send result data</text></g><g stroke-linecap="round" transform="translate(2388.4868963309837 1153.1886427856257) rotate(0 221.49050865008553 84.19673167795503)"><path d="M32 0 M32 0 C119.53 -2.4, 205.24 -1.15, 410.98 0 M32 0 C150.14 2.22, 268.23 2.24, 410.98 0 M410.98 0 C430.47 -0.01, 443.95 11.06, 442.98 32 M410.98 0 C433.66 1.99, 444.08 9.71, 442.98 32 M442.98 32 C442.9 71.62, 440.83 111.42, 442.98 136.39 M442.98 32 C442.87 67.7, 442.55 102.57, 442.98 136.39 M442.98 136.39 C441.77 158.76, 431.64 166.68, 410.98 168.39 M442.98 136.39 C440.75 158.97, 430.36 168.81, 410.98 168.39 M410.98 168.39 C313.93 167.36, 218.01 166.85, 32 168.39 M410.98 168.39 C292.43 165.86, 173.16 166.23, 32 168.39 M32 168.39 C10.75 167.22, 1.42 155.93, 0 136.39 M32 168.39 C12.65 166.93, -1.2 156.12, 0 136.39 M0 136.39 C0.42 95.95, -0.95 56.96, 0 32 M0 136.39 C-1.6 110.1, -1.95 82.67, 0 32 M0 32 C-1.01 11.14, 10.27 -0.5, 32 0 M0 32 C-1.05 8.5, 12.55 -0.92, 32 0" stroke="#1e1e1e" stroke-width="1" fill="none"></path></g><g transform="translate(2401.187579541616 1224.8853744635808) rotate(0 208.78982543945312 12.5)"><text x="208.78982543945312" y="0" font-family="Virgil, Segoe UI Emoji" font-size="20px" fill="#1e1e1e" text-anchor="middle" style="white-space: pre;" direction="ltr" dominant-baseline="text-before-edge">Display Result (Images, Parameters, etc.)</text></g></svg>